HIERARCHY
ROOT Hips
{
	OFFSET -3.958830 18.904000 13.208200
	CHANNELS 6 Xposition Yposition Zposition Zrotation Yrotation Xrotation 
	JOINT LHipJoint
	{
		OFFSET 0.000000 0.000000 0.000000
		CHANNELS 3 Zrotation Yrotation Xrotation
		JOINT LeftUpLeg
		{
			OFFSET 1.800000 -1.400000 0.085000
			CHANNELS 3 Zrotation Yrotation Xrotation
			JOINT LeftLeg
			{
				OFFSET 2.215000 -6.000000 0.000000
				CHANNELS 3 Zrotation Yrotation Xrotation
				JOINT LeftFoot
				{
					OFFSET 2.500000 -6.900000 0.000000
					CHANNELS 3 Zrotation Yrotation Xrotation
					JOINT LeftToeBase
					{
						OFFSET 0.200000 -0.500000 1.950000
						CHANNELS 3 Zrotation Yrotation Xrotation
						End Site
						{
							OFFSET 0.000000 0.000000 0.000000
						}
					}
				}
			}
		}
	}
	JOINT RHipJoint
	{
		OFFSET 0.000000 0.000000 0.000000
		CHANNELS 3 Zrotation Yrotation Xrotation
		JOINT RightUpLeg
		{
			OFFSET -1.800000 -1.400000 0.085000
			CHANNELS 3 Zrotation Yrotation Xrotation
			JOINT RightLeg
			{
				OFFSET -2.215000 -6.000000 0.000000
				CHANNELS 3 Zrotation Yrotation Xrotation
				JOINT RightFoot
				{
					OFFSET -2.500000 -6.900000 0.000000
					CHANNELS 3 Zrotation Yrotation Xrotation
					JOINT RightToeBase
					{
						OFFSET -0.200000 -0.500000 1.950000
						CHANNELS 3 Zrotation Yrotation Xrotation
						End Site
						{
							OFFSET 0.000000 0.000000 0.000000
						}
					}
				}
			}
		}
	}
	JOINT LowerBack
	{
		OFFSET 0.000000 0.000000 0.000000
		CHANNELS 3 Zrotation Yrotation Xrotation
		JOINT Spine
		{
			OFFSET -0.087000 1.940000 -0.288900
			CHANNELS 3 Zrotation Yrotation Xrotation
			JOINT Spine1
			{
				OFFSET 0.000000 1.950000 0.060000
				CHANNELS 3 Zrotation Yrotation Xrotation
				JOINT Neck
				{
					OFFSET 0.000000 0.000000 0.000000
					CHANNELS 3 Zrotation Yrotation Xrotation
					JOINT Neck1
					{
						OFFSET 0.000000 1.600000 0.340000
						CHANNELS 3 Zrotation Yrotation Xrotation
						JOINT Head
						{
							OFFSET 0.000000 1.667000 -0.240000
							CHANNELS 3 Zrotation Yrotation Xrotation
							End Site
							{
								OFFSET 0.000000 0.000000 0.000000
							}
						}
					}
				}
				JOINT LeftShoulder
				{
					OFFSET 0.000000 0.000000 0.000000
					CHANNELS 3 Zrotation Yrotation Xrotation
					JOINT LeftArm
					{
						OFFSET 2.700000 1.550000 -0.730000
						CHANNELS 3 Zrotation Yrotation Xrotation
						JOINT LeftForeArm
						{
							OFFSET 5.450000 0.000000 0.000000
							CHANNELS 3 Zrotation Yrotation Xrotation
							JOINT LeftHand
							{
								OFFSET 3.450000 0.000000 0.000000
								CHANNELS 3 Zrotation Yrotation Xrotation
								JOINT LeftHandIndex1
								{
									OFFSET 0.750000 0.000000 0.000000
									CHANNELS 3 Zrotation Yrotation Xrotation
									End Site
									{
										OFFSET 0.000000 0.000000 0.000000
									}
								}
							}
						}
					}
				}
				JOINT RightShoulder
				{
					OFFSET 0.000000 0.000000 0.000000
					CHANNELS 3 Zrotation Yrotation Xrotation
					JOINT RightArm
					{
						OFFSET -2.700000 1.550000 -0.730000
						CHANNELS 3 Zrotation Yrotation Xrotation
						JOINT RightForeArm
						{
							OFFSET -5.450000 0.000000 0.000000
							CHANNELS 3 Zrotation Yrotation Xrotation
							JOINT RightHand
							{
								OFFSET -3.450000 0.000000 0.000000
								CHANNELS 3 Zrotation Yrotation Xrotation
								JOINT RightHandIndex1
								{
									OFFSET -0.750000 0.000000 0.000000
									CHANNELS 3 Zrotation Yrotation Xrotation
									End Site
									{
										OFFSET 0.000000 0.000000 0.000000
									}
								}
							}
						}
					}
				}
			}
		}
	}
}
MOTION
Frames: 12
Frame Time: 0.016667
1.396860 18.750740 -4.205300 -13.917606 -1.650615 2.686981 -15.223843 12.774684 2.518421 5.985489 -3.209193 -25.517808 3.506603 5.997952 37.756728 -0.719229 6.670461 1.992581 0.414990 0.090040 0.413390 18.476188 -8.892013 5.067512 6.576605 13.404867 -43.616193 5.669041 -2.511004 10.725800 -0.208557 -1.185813 3.289787 0.123050 0.394110 0.906570 -3.820719 -2.263130 -8.323996 12.597033 -2.017842 29.014943 0.111062 -0.051553 20.874362 3.776142 4.485272 -6.544616 5.737434 -1.880437 66.526798 -9.712080 2.994690 -11.909480 -11.638347 -4.975801 -0.189773 25.908122 14.650684 4.723844 -0.627505 -21.501557 -0.141633 -3.785939 3.710938 0.848350 0.222910 0.420440 0.135250 5.602033 0.872133 0.699493 -25.532749 -8.544169 4.111601 15.336336 57.096577 7.876279 2.290330 -2.120064 -0.152810 0.153530 0.236790 -0.076940 
1.415840 18.644300 -4.202430 -13.060550 -1.472172 4.673202 -15.217150 12.586920 2.569651 5.103630 -3.596801 -26.532646 3.737530 5.789683 37.935687 -0.816895 6.611116 1.984909 0.433900 0.084060 0.414210 18.513619 -8.872635 5.027271 7.257746 13.015010 -43.981735 5.021964 -1.665088 2.147677 -0.191024 -0.733237 3.454054 0.134280 0.364200 0.835700 -3.900309 -2.037642 -8.333748 11.960193 -1.604993 26.261557 -0.623783 0.019069 20.900560 3.495165 4.189155 -7.917259 5.126844 -2.306844 72.302229 -6.535400 1.370540 -13.071300 -10.050672 -5.895517 0.886009 25.363898 15.450775 4.604246 0.006908 -18.720619 -0.438784 -3.706748 3.501226 0.985240 0.127190 0.447510 0.129350 4.636429 1.999035 1.644964 -23.324735 -8.900488 3.676148 16.744981 52.267520 7.959564 2.229317 -1.979920 -0.216810 0.233720 0.263150 -0.111070 
1.485480 18.480060 -4.251570 -11.291360 -1.167596 5.461682 -15.206412 12.505558 2.518760 3.640619 -3.878013 -25.781386 3.912106 5.413502 37.605198 -0.791465 6.369458 2.065730 0.469810 0.152860 0.376280 18.529625 -8.833448 4.989121 6.348465 12.334027 -42.653143 6.112145 -0.368276 -11.635788 -0.349761 -0.945701 3.411737 0.135990 0.331000 0.747670 -3.952509 -1.987223 -8.401181 11.028501 -1.657758 26.361971 -2.321469 0.033607 20.609795 2.797668 2.575382 -9.349547 0.749900 -0.014830 77.422762 0.347810 -0.466810 -15.907490 -9.070385 -7.566358 2.230008 25.853064 16.572365 4.467716 2.002001 -14.858894 -0.821708 -3.559925 3.268822 1.107390 -0.019730 0.527980 0.163220 4.819209 4.912698 2.612758 -23.552829 -9.770539 3.357202 19.911897 42.802915 7.786272 2.216678 -1.847280 -0.222550 0.329350 0.245360 -0.077440 
1.576360 18.343510 -4.319980 -9.027146 -0.486609 4.468163 -15.296739 12.751100 2.486191 1.527911 -3.981103 -23.154220 4.192616 5.032495 36.964054 -0.718858 6.216044 2.212817 0.237760 -0.067730 0.154650 18.396216 -8.618100 5.092258 3.558235 11.502937 -41.907857 8.263991 0.570885 -18.697840 -0.440509 -1.315141 3.432640 -0.032260 0.467110 0.607180 -3.617302 -2.665298 -8.558661 7.915312 -1.713465 31.570006 -2.239956 0.089728 18.863972 1.930200 1.085923 -12.915533 -3.879889 3.080548 82.014561 8.468220 -2.072880 -14.644070 -6.801885 -10.289158 5.634133 23.058609 19.701211 3.882762 3.582067 -8.504862 -1.241366 -3.611823 2.700264 1.239250 -0.065730 0.517770 0.166110 3.935797 9.486789 5.120803 -21.826357 -13.893245 2.045373 18.116841 35.452692 6.313265 2.175966 -1.458185 -0.346320 0.512580 0.354880 -0.037810 
1.654960 18.161270 -4.347350 -7.403930 2.838506 5.717496 -15.409403 12.862602 2.723065 -0.167965 -5.062981 -23.867496 5.029585 4.342569 37.308363 -0.512021 5.964237 2.291985 0.196710 -0.078080 0.111670 18.273857 -8.275509 5.207173 -0.077030 10.471753 -46.013615 9.471197 0.530004 -17.449566 -0.470090 -1.155611 3.512544 -0.157960 0.386460 0.582000 -3.277538 -3.423688 -8.757863 5.527497 -2.514305 33.442771 -0.075194 -1.055631 15.474137 1.305713 0.517835 -17.210897 -6.449176 5.208900 87.455177 13.510300 -2.949580 -10.544270 -5.571434 -13.283666 9.602287 18.640444 22.463193 3.002851 5.833945 -3.490177 -1.325273 -3.650082 2.409235 1.267570 -0.154130 0.616810 0.179740 3.882455 13.131327 7.863569 -18.830579 -18.969194 0.572682 8.993849 32.523348 3.990546 2.208037 -1.234741 -0.252740 0.431550 0.296650 0.007050 
1.784850 17.950840 -4.331780 -5.615696 5.476640 7.757028 -15.479607 12.735212 3.084574 -2.952546 -6.354464 -25.249144 5.530887 3.891240 38.381548 -0.286012 5.939494 2.386073 0.146210 -0.120650 0.090960 18.228730 -8.056886 5.342859 -3.614281 9.353578 -52.621778 9.553976 -0.571717 -9.857666 -0.353490 -0.861870 3.679704 -0.249690 0.406750 0.570390 -3.106717 -3.624979 -8.962794 3.949997 -3.111643 32.172066 1.126151 -2.173572 11.145085 1.255792 2.136358 -19.322925 -1.150467 1.676471 91.113866 9.445390 -2.604400 0.843880 -7.270132 -16.611542 10.675126 21.261807 24.459655 3.138494 7.342869 -5.656319 -0.986369 -3.657575 2.424635 1.155280 -0.082820 0.609660 0.257710 5.473006 15.078164 9.743975 -15.921215 -16.793707 -0.438586 0.571743 23.948523 2.003733 2.269905 -1.048407 -0.201170 0.366280 0.193900 0.062170 
1.910220 17.825620 -4.296160 -4.665608 5.919126 7.994427 -15.578267 12.876191 3.246601 -4.756945 -6.532733 -24.509881 5.583887 3.798901 38.529725 -0.198926 5.894626 2.398753 0.140910 -0.191790 0.243310 18.121627 -7.952811 5.414267 -4.584811 9.219118 -55.708203 9.957281 -1.917438 -0.526838 -0.307774 -0.709558 3.699205 -0.334980 0.225460 0.589140 -2.794723 -4.041867 -9.026551 2.970388 -2.905562 33.354768 2.743775 -1.671329 8.663608 2.216740 3.747312 -21.084387 4.114499 -3.604330 91.001200 -1.831500 0.113850 5.038400 -9.257346 -18.745984 11.197313 20.649671 25.359360 2.644505 9.617806 -9.376788 -0.741271 -3.604312 2.518107 1.145550 -0.118810 0.665500 0.197540 5.283956 16.584181 11.864167 -12.893686 -18.006076 -1.108682 -5.645133 21.475356 1.209277 2.367226 -0.981297 -0.144570 0.231480 0.122180 0.002140 
2.047250 17.849980 -4.263080 -3.127336 3.301916 2.362807 -15.709410 13.627168 3.072301 -5.794621 -4.391317 -16.856558 3.218892 5.056354 36.460615 -0.239305 5.870482 2.343101 0.307270 -0.083420 0.518820 17.901167 -8.158367 5.027391 -4.466263 8.783740 -51.153913 10.991022 -3.378236 8.997191 -0.476264 -0.961257 3.495634 -0.302610 -0.085770 0.613740 -2.278560 -5.036911 -8.678051 -0.923445 0.185187 41.103861 4.796687 0.474576 9.592128 2.669036 4.984499 -21.908078 7.540782 -7.249603 91.272918 -7.819450 1.921430 -4.919300 -11.071110 -20.271881 10.886582 21.193827 26.349026 2.245153 9.722269 -15.004302 -0.719687 -3.319235 2.728642 1.360970 -0.324430 0.859250 0.109520 6.064982 18.325363 13.753848 -6.852337 -20.407672 -3.947671 -20.161594 24.578883 -1.018659 2.397817 -1.003263 -0.103140 0.157440 0.040790 -0.132390 
2.173460 17.866890 -4.240790 -2.038440 1.852251 -0.484551 -15.724021 13.691084 3.157061 -6.388312 -4.134092 -14.347762 0.538007 6.700123 38.047375 -0.012976 6.482493 2.158911 0.237110 -0.133530 0.434300 17.882966 -8.179977 4.880786 -5.941306 8.941290 -49.207785 13.632959 -5.054937 17.200122 -0.547546 -1.944970 3.166760 -0.339440 -0.029060 0.593010 -2.221630 -5.258862 -8.666554 -1.737824 1.081707 45.225477 4.968921 0.584957 10.507759 2.367179 4.364616 -21.514709 4.824291 -4.733135 88.741975 -5.881240 1.561150 -3.831800 -11.325156 -20.726220 11.162147 17.679994 26.049555 1.065854 11.411388 -19.457655 -0.925264 -3.321530 2.891523 1.281560 -0.298630 0.799040 0.099840 6.936291 19.413686 13.274342 -1.278423 -18.621651 -8.078287 -35.454173 30.405301 -5.894980 2.395886 -1.084531 -0.092060 0.155160 0.078990 -0.095090 
2.320440 17.940140 -4.219440 -2.412771 3.143580 -2.721546 -15.681384 13.688702 3.323240 -5.708357 -4.875753 -13.996290 -1.706037 8.095653 40.973908 0.393729 7.355618 1.975245 -0.017270 -0.293800 0.056790 17.885607 -8.407150 4.592688 -6.277666 8.439139 -45.431315 15.532795 -6.619582 21.732098 -0.523232 -2.957814 2.957818 -0.471910 0.323950 0.690590 -2.313549 -5.189546 -8.685157 1.292749 -0.370156 49.075858 4.475785 0.025998 11.970324 2.078674 4.429452 -20.089408 4.373510 -3.928153 77.360584 -3.301830 -0.381160 0.609950 -9.831838 -21.328292 11.058920 11.754956 20.914974 -1.706401 15.718387 -26.126415 -2.092779 -3.623769 3.041403 0.959750 -0.030930 0.605170 0.164860 5.800265 19.672370 12.218902 1.107585 -15.250947 -10.621233 -40.160977 35.486883 -9.434201 2.284463 -1.104895 -0.014610 0.164610 0.234850 0.105820 
2.477690 17.984900 -4.135860 -1.854683 2.413295 -1.287243 -15.693244 13.183292 3.730818 -5.522663 -7.050789 -18.062565 -6.631284 11.092967 45.155847 0.948409 8.415935 1.686793 -0.032250 -0.157450 -0.100830 17.925940 -8.245218 4.579653 -6.852102 8.768772 -45.429615 17.692303 -8.404869 26.302993 -0.701256 -3.933426 2.736043 -0.503450 0.398160 0.695940 -2.342176 -4.915419 -8.979531 2.542131 -1.010977 47.734131 4.788975 -0.105785 9.908193 2.189587 3.834038 -20.638285 3.011224 -3.212651 74.588203 -3.747520 -0.568530 3.252720 -9.343620 -22.350084 11.972516 -1.058923 18.766316 -6.357326 28.250199 -36.189671 -7.216976 -3.525508 3.043635 0.778410 0.010620 0.644330 0.323990 5.184640 21.347517 12.462917 10.256576 -12.805183 -14.531713 -51.352783 42.798349 -17.646196 2.187831 -1.020058 0.121010 0.169610 0.137380 0.293140 
2.602140 17.978580 -4.069490 -1.999628 0.855387 -2.050226 -15.726767 12.650007 4.106104 -2.656761 -8.692085 -20.560870 -15.128534 16.568966 47.909094 1.436965 10.458134 1.210195 -0.167230 -0.295190 -0.251000 17.967333 -8.061669 4.413032 -5.276038 9.786242 -43.352582 19.097457 -10.233684 31.232454 -0.741010 -5.094107 2.434067 -0.479940 0.670180 0.653490 -2.347398 -4.648279 -9.173037 2.760606 -0.847987 46.318334 5.388289 -0.339814 12.795813 1.887025 2.605220 -17.859128 1.331502 -2.243861 61.188226 -4.574160 -0.717920 4.647500 -5.197921 -19.663518 10.627485 -15.416751 12.440196 -11.648689 41.470691 -46.444402 -17.287083 -3.536904 2.815855 0.565070 0.218500 0.385070 0.367400 1.644790 20.195619 11.417865 20.841023 -3.118903 -17.294715 -56.150951 45.096060 -24.225530 2.020244 -0.983090 0.000990 0.249080 0.194860 0.340000 
